<svg width="36" height="36" viewBox="0 0 36 36" fill="none" xmlns="http://www.w3.org/2000/svg">
<path d="M11.25 25.275C11.55 25.275 11.8125 25.1625 12.0375 24.9375C12.2625 24.7125 12.375 24.45 12.375 24.15C12.375 23.85 12.2625 23.5875 12.0375 23.3625C11.8125 23.1375 11.55 23.025 11.25 23.025C10.95 23.025 10.6875 23.1375 10.4625 23.3625C10.2375 23.5875 10.125 23.85 10.125 24.15C10.125 24.45 10.2375 24.7125 10.4625 24.9375C10.6875 25.1625 10.95 25.275 11.25 25.275ZM11.25 19.125C11.55 19.125 11.8125 19.0125 12.0375 18.7875C12.2625 18.5625 12.375 18.3 12.375 18C12.375 17.7 12.2625 17.4375 12.0375 17.2125C11.8125 16.9875 11.55 16.875 11.25 16.875C10.95 16.875 10.6875 16.9875 10.4625 17.2125C10.2375 17.4375 10.125 17.7 10.125 18C10.125 18.3 10.2375 18.5625 10.4625 18.7875C10.6875 19.0125 10.95 19.125 11.25 19.125ZM11.25 12.975C11.55 12.975 11.8125 12.8625 12.0375 12.6375C12.2625 12.4125 12.375 12.15 12.375 11.85C12.375 11.55 12.2625 11.2875 12.0375 11.0625C11.8125 10.8375 11.55 10.725 11.25 10.725C10.95 10.725 10.6875 10.8375 10.4625 11.0625C10.2375 11.2875 10.125 11.55 10.125 11.85C10.125 12.15 10.2375 12.4125 10.4625 12.6375C10.6875 12.8625 10.95 12.975 11.25 12.975ZM16.2 24.275C16.2 24.8273 16.6477 25.275 17.2 25.275H24.35C24.9023 25.275 25.35 24.8273 25.35 24.275V24.025C25.35 23.4727 24.9023 23.025 24.35 23.025H17.2C16.6477 23.025 16.2 23.4727 16.2 24.025V24.275ZM16.2 18.125C16.2 18.6773 16.6477 19.125 17.2 19.125H24.35C24.9023 19.125 25.35 18.6773 25.35 18.125V17.875C25.35 17.3227 24.9023 16.875 24.35 16.875H17.2C16.6477 16.875 16.2 17.3227 16.2 17.875V18.125ZM16.2 11.975C16.2 12.5273 16.6477 12.975 17.2 12.975H24.35C24.9023 12.975 25.35 12.5273 25.35 11.975V11.725C25.35 11.1727 24.9023 10.725 24.35 10.725H17.2C16.6477 10.725 16.2 11.1727 16.2 11.725V11.975ZM6.75 31.5C6.15 31.5 5.625 31.275 5.175 30.825C4.725 30.375 4.5 29.85 4.5 29.25V6.75C4.5 6.15 4.725 5.625 5.175 5.175C5.625 4.725 6.15 4.5 6.75 4.5H29.25C29.85 4.5 30.375 4.725 30.825 5.175C31.275 5.625 31.5 6.15 31.5 6.75V29.25C31.5 29.85 31.275 30.375 30.825 30.825C30.375 31.275 29.85 31.5 29.25 31.5H6.75ZM6.75 29.25H29.25V6.75H6.75V29.25Z" fill="#56008A"/>
</svg>
