<svg width="42" height="42" viewBox="0 0 42 42" fill="none" xmlns="http://www.w3.org/2000/svg">
<circle cx="21" cy="21" r="21" fill="#00CF15"/>
<path d="M9.33334 14.3791V9.33331H14.3792V11.0833H11.0833V14.3791H9.33334ZM9.33334 32.6666V27.6208H11.0833V30.9166H14.3792V32.6666H9.33334ZM27.6208 32.6666V30.9166H30.9167V27.6208H32.6667V32.6666H27.6208ZM30.9167 14.3791V11.0833H27.6208V9.33331H32.6667V14.3791H30.9167ZM27.65 27.6791H29.4875V29.5166H27.65V27.6791ZM27.65 24.0041H29.4875V25.8416H27.65V24.0041ZM25.8125 25.8416H27.65V27.6791H25.8125V25.8416ZM23.975 27.6791H25.8125V29.5166H23.975V27.6791ZM22.1375 25.8416H23.975V27.6791H22.1375V25.8416ZM25.8125 22.1666H27.65V24.0041H25.8125V22.1666ZM23.975 24.0041H25.8125V25.8416H23.975V24.0041ZM22.1375 22.1666H23.975V24.0041H22.1375V22.1666ZM29.4875 12.4833V19.8333H22.1375V12.4833H29.4875ZM19.8333 22.1666V29.5166H12.4833V22.1666H19.8333ZM19.8333 12.4833V19.8333H12.4833V12.4833H19.8333ZM18.375 28.0583V23.625H13.9417V28.0583H18.375ZM18.375 18.375V13.9416H13.9417V18.375H18.375ZM28.0292 18.375V13.9416H23.5958V18.375H28.0292Z" fill="white"/>
</svg>
