<svg width="32" height="32" viewBox="0 0 32 32" fill="none" xmlns="http://www.w3.org/2000/svg">
<path d="M25.7667 10.2V7.33335H22.9V5.33335H25.7667V2.43335H27.7667V5.33335H30.6667V7.33335H27.7667V10.2H25.7667ZM3.13333 29.3334C2.6 29.3334 2.13333 29.1334 1.73333 28.7334C1.33333 28.3334 1.13333 27.8667 1.13333 27.3334V10.2333C1.13333 9.72224 1.33333 9.26113 1.73333 8.85002C2.13333 8.43891 2.6 8.23335 3.13333 8.23335H8.03333L10.4667 5.33335H19.8V7.33335H11.4L8.96666 10.2333H3.13333V27.3334H25.8V13.3334H27.8V27.3334C27.8 27.8667 27.5944 28.3334 27.1833 28.7334C26.7722 29.1334 26.3111 29.3334 25.8 29.3334H3.13333ZM14.45 24.4667C16.0611 24.4667 17.4111 23.9222 18.5 22.8334C19.5889 21.7445 20.1333 20.3945 20.1333 18.7833C20.1333 17.1722 19.5889 15.8278 18.5 14.75C17.4111 13.6722 16.0611 13.1334 14.45 13.1334C12.8389 13.1334 11.4944 13.6722 10.4167 14.75C9.33889 15.8278 8.8 17.1722 8.8 18.7833C8.8 20.3945 9.33889 21.7445 10.4167 22.8334C11.4944 23.9222 12.8389 24.4667 14.45 24.4667ZM14.45 22.4667C13.3944 22.4667 12.5222 22.1167 11.8333 21.4167C11.1444 20.7167 10.8 19.8389 10.8 18.7833C10.8 17.7278 11.1444 16.8556 11.8333 16.1667C12.5222 15.4778 13.3944 15.1334 14.45 15.1334C15.5056 15.1334 16.3833 15.4778 17.0833 16.1667C17.7833 16.8556 18.1333 17.7278 18.1333 18.7833C18.1333 19.8389 17.7833 20.7167 17.0833 21.4167C16.3833 22.1167 15.5056 22.4667 14.45 22.4667Z" fill="#56008A"/>
</svg>
