<svg width="36" height="36" viewBox="0 0 36 36" fill="none" xmlns="http://www.w3.org/2000/svg">
<path d="M2.13918 30C1.87398 30 1.61963 29.8947 1.43209 29.7071L1.2679 29.543C1.08035 29.3554 0.974987 29.1011 0.974987 28.8358V26.475C0.974987 25.6 1.19999 24.8063 1.64999 24.0938C2.09999 23.3813 2.72499 22.85 3.52499 22.5C5.34999 21.7 6.99374 21.125 8.45624 20.775C9.91874 20.425 11.425 20.25 12.975 20.25C14.525 20.25 16.025 20.425 17.475 20.775C18.925 21.125 20.5625 21.7 22.3875 22.5C23.1875 22.85 23.8187 23.3813 24.2812 24.0938C24.7437 24.8063 24.975 25.6 24.975 26.475V28.8663C24.975 29.1134 24.8835 29.3517 24.7183 29.5353L24.5979 29.669C24.4083 29.8797 24.1381 30.0001 23.8546 30.0001L2.13918 30ZM28.3892 30C28.124 30 27.8696 29.8947 27.6821 29.7071L27.5179 29.543C27.3304 29.3554 27.225 29.1011 27.225 28.8358V26.475C27.225 24.9 26.825 23.6063 26.025 22.5938C25.225 21.5813 24.175 20.7625 22.875 20.1375C24.6 20.3375 26.225 20.6313 27.75 21.0188C29.275 21.4063 30.5125 21.85 31.4625 22.35C32.2875 22.825 32.9375 23.4125 33.4125 24.1125C33.8875 24.8125 34.125 25.6 34.125 26.475V28.8358C34.125 29.1011 34.0196 29.3554 33.8321 29.543L33.6679 29.7071C33.4803 29.8947 33.226 30 32.9608 30H28.3892ZM12.975 17.9625C11.325 17.9625 9.97499 17.4375 8.92499 16.3875C7.87499 15.3375 7.34999 13.9875 7.34999 12.3375C7.34999 10.6875 7.87499 9.33752 8.92499 8.28752C9.97499 7.23752 11.325 6.71252 12.975 6.71252C14.625 6.71252 15.975 7.23752 17.025 8.28752C18.075 9.33752 18.6 10.6875 18.6 12.3375C18.6 13.9875 18.075 15.3375 17.025 16.3875C15.975 17.4375 14.625 17.9625 12.975 17.9625ZM26.475 12.3375C26.475 13.9875 25.95 15.3375 24.9 16.3875C23.85 17.4375 22.5 17.9625 20.85 17.9625C20.575 17.9625 20.2687 17.9438 19.9312 17.9063C19.5937 17.8688 19.2875 17.8 19.0125 17.7C19.6125 17.075 20.0687 16.3063 20.3812 15.3938C20.6937 14.4813 20.85 13.4625 20.85 12.3375C20.85 11.2125 20.6937 10.2188 20.3812 9.35627C20.0687 8.49377 19.6125 7.70002 19.0125 6.97502C19.2875 6.90002 19.5937 6.83752 19.9312 6.78752C20.2687 6.73752 20.575 6.71252 20.85 6.71252C22.5 6.71252 23.85 7.23752 24.9 8.28752C25.95 9.33752 26.475 10.6875 26.475 12.3375ZM3.22499 27.75H22.725V26.475C22.725 26.075 22.6062 25.6875 22.3687 25.3125C22.1312 24.9375 21.8375 24.675 21.4875 24.525C19.6875 23.725 18.175 23.1875 16.95 22.9125C15.725 22.6375 14.4 22.5 12.975 22.5C11.55 22.5 10.2187 22.6375 8.98124 22.9125C7.74374 23.1875 6.22499 23.725 4.42499 24.525C4.07499 24.675 3.78749 24.9375 3.56249 25.3125C3.33749 25.6875 3.22499 26.075 3.22499 26.475V27.75ZM12.975 15.7125C13.95 15.7125 14.7562 15.3938 15.3937 14.7563C16.0312 14.1188 16.35 13.3125 16.35 12.3375C16.35 11.3625 16.0312 10.5563 15.3937 9.91877C14.7562 9.28127 13.95 8.96252 12.975 8.96252C12 8.96252 11.1937 9.28127 10.5562 9.91877C9.91874 10.5563 9.59999 11.3625 9.59999 12.3375C9.59999 13.3125 9.91874 14.1188 10.5562 14.7563C11.1937 15.3938 12 15.7125 12.975 15.7125Z" fill="#56008A"/>
</svg>
