<svg width="24" height="24" viewBox="0 0 24 24" fill="none" xmlns="http://www.w3.org/2000/svg">
<path d="M5.475 13.4748C5.0582 13.4748 4.7082 13.329 4.425 13.0374C4.1418 12.7458 4.0002 12.4 4.0002 12C4.0002 11.6 4.146 11.2542 4.4376 10.9626C4.7292 10.671 5.075 10.5252 5.475 10.5252C5.875 10.5252 6.2166 10.671 6.4998 10.9626C6.7834 11.2542 6.9252 11.6 6.9252 12C6.9252 12.4 6.7834 12.7458 6.4998 13.0374C6.2166 13.329 5.875 13.4748 5.475 13.4748ZM12 13.4748C11.6 13.4748 11.2542 13.329 10.9626 13.0374C10.671 12.7458 10.5252 12.4 10.5252 12C10.5252 11.6 10.671 11.2542 10.9626 10.9626C11.2542 10.671 11.6 10.5252 12 10.5252C12.4 10.5252 12.7458 10.671 13.0374 10.9626C13.329 11.2542 13.4748 11.6 13.4748 12C13.4748 12.4 13.329 12.7458 13.0374 13.0374C12.7458 13.329 12.4 13.4748 12 13.4748ZM18.525 13.4748C18.125 13.4748 17.7834 13.329 17.5002 13.0374C17.2166 12.7458 17.0748 12.4 17.0748 12C17.0748 11.6 17.2166 11.2542 17.5002 10.9626C17.7834 10.671 18.125 10.5252 18.525 10.5252C18.9418 10.5252 19.2918 10.671 19.575 10.9626C19.8582 11.2542 19.9998 11.6 19.9998 12C19.9998 12.4 19.854 12.7458 19.5624 13.0374C19.2708 13.329 18.925 13.4748 18.525 13.4748Z" fill="#56008A"/>
</svg>
