<svg width="32" height="32" viewBox="0 0 32 32" fill="none" xmlns="http://www.w3.org/2000/svg">
<path d="M12.7336 29.3336L12.1 25.1C11.7224 24.9666 11.3392 24.7834 10.9504 24.5504C10.5611 24.3168 10.1997 24.0778 9.86641 23.8336L5.93361 25.6L2.63361 19.8336L6.20001 17.2C6.15574 17.0224 6.12801 16.8224 6.11681 16.6C6.10561 16.3776 6.10001 16.1776 6.10001 16C6.10001 15.8224 6.10561 15.6224 6.11681 15.4C6.12801 15.1776 6.15574 14.9776 6.20001 14.8L2.63361 12.1664L5.93361 6.39998L9.86641 8.16638C10.1997 7.92212 10.5664 7.68318 10.9664 7.44958C11.3664 7.21652 11.7443 7.03332 12.1 6.89998L12.7336 2.66638H19.2664L19.9 6.89998C20.2776 7.03332 20.6664 7.21118 21.0664 7.43358C21.4664 7.65545 21.8221 7.89971 22.1336 8.16638L26.0664 6.39998L29.3664 12.1664L25.8 14.7336C25.8443 14.9336 25.872 15.1445 25.8832 15.3664C25.8944 15.5888 25.9 15.8 25.9 16C25.9 16.2 25.8944 16.4056 25.8832 16.6168C25.872 16.828 25.8443 17.0336 25.8 17.2336L29.3336 19.8336L26.0664 25.6L22.1336 23.8336C21.8003 24.0778 21.4389 24.3221 21.0496 24.5664C20.6608 24.8112 20.2776 24.989 19.9 25.1L19.2664 29.3336H12.7336ZM16.0336 20.4336C17.2555 20.4336 18.2997 20.0002 19.1664 19.1336C20.0331 18.2669 20.4664 17.2224 20.4664 16C20.4664 14.7776 20.0331 13.733 19.1664 12.8664C18.2997 11.9997 17.2555 11.5664 16.0336 11.5664C14.7888 11.5664 13.7331 11.9997 12.8664 12.8664C11.9997 13.733 11.5664 14.7776 11.5664 16C11.5664 17.2224 11.9997 18.2669 12.8664 19.1336C13.7331 20.0002 14.7888 20.4336 16.0336 20.4336ZM16.0336 18.2336C15.4112 18.2336 14.8832 18.0168 14.4496 17.5832C14.0165 17.1501 13.8 16.6224 13.8 16C13.8 15.3776 14.0165 14.8498 14.4496 14.4168C14.8832 13.9832 15.4112 13.7664 16.0336 13.7664C16.6336 13.7664 17.1501 13.9832 17.5832 14.4168C18.0168 14.8498 18.2336 15.3776 18.2336 16C18.2336 16.6224 18.0168 17.1501 17.5832 17.5832C17.1501 18.0168 16.6336 18.2336 16.0336 18.2336ZM14.5664 27.1H17.4L17.8664 23.4336C18.5997 23.2554 19.2832 22.9832 19.9168 22.6168C20.5499 22.2498 21.1221 21.8109 21.6336 21.3L25.1 22.7664L26.4 20.4336L23.3664 18.1664C23.4555 17.8112 23.5277 17.4557 23.5832 17.1C23.6387 16.7442 23.6664 16.3776 23.6664 16C23.6664 15.6224 23.6443 15.2557 23.6 14.9C23.5557 14.5442 23.4779 14.1888 23.3664 13.8336L26.4 11.5664L25.1 9.23358L21.6336 10.7C21.1221 10.1442 20.5555 9.68318 19.9336 9.31678C19.3112 8.94985 18.6221 8.69972 17.8664 8.56638L17.4336 4.89998H14.6L14.1336 8.56638C13.4003 8.72212 12.7168 8.98345 12.0832 9.35038C11.4501 9.71678 10.8779 10.1666 10.3664 10.7L6.90001 9.23358L5.60001 11.5664L8.63361 13.8336C8.54454 14.1888 8.47227 14.5442 8.41681 14.9C8.36134 15.2557 8.33361 15.6224 8.33361 16C8.33361 16.3776 8.36134 16.7442 8.41681 17.1C8.47227 17.4557 8.54454 17.8112 8.63361 18.1664L5.60001 20.4336L6.90001 22.7664L10.3664 21.3C10.8779 21.8109 11.4501 22.2498 12.0832 22.6168C12.7168 22.9832 13.4003 23.2554 14.1336 23.4336L14.5664 27.1Z" fill="#56008A"/>
</svg>
