<svg width="36" height="36" viewBox="0 0 36 36" fill="none" xmlns="http://www.w3.org/2000/svg">
<path d="M6.76587 20.6023C6.52667 20.8457 6.16974 20.9316 5.84601 20.8237C5.46024 20.6951 5.12986 20.4388 4.90941 20.0971L4.90124 20.0844C4.66723 19.7217 4.71852 19.2448 5.02431 18.9401L14.3603 9.6387C14.5298 9.46982 14.7594 9.375 14.9986 9.375C15.2395 9.375 15.4705 9.47111 15.6402 9.64202L20.2914 14.3242C20.6821 14.7175 21.3183 14.7179 21.7095 14.3251L29.6904 6.31087C29.8801 6.12042 30.1612 6.05374 30.4162 6.13874C30.8598 6.28659 31.2018 6.64381 31.3303 7.09338L31.3648 7.21433C31.4481 7.50594 31.3652 7.81977 31.1488 8.0322L21.6448 17.3602C21.4719 17.5299 21.2393 17.625 20.997 17.625C20.7583 17.625 20.5288 17.5327 20.3566 17.3674L15.7129 12.9094C15.3178 12.5301 14.6911 12.5392 14.3072 12.9298L6.76587 20.6023Z" fill="#56008A"/>
<path d="M10.875 20.8568V30.6506C10.875 30.9735 11.0816 31.2601 11.3878 31.3622L11.5257 31.4081C11.8336 31.5107 12.1665 31.5107 12.4744 31.4081L12.6122 31.3622C12.9184 31.2601 13.125 30.9735 13.125 30.6506V20.8568C13.125 20.534 12.9184 20.2474 12.6122 20.1453L12.4744 20.0993C12.1665 19.9967 11.8336 19.9967 11.5257 20.0993L11.3878 20.1453C11.0816 20.2474 10.875 20.534 10.875 20.8568Z" fill="#56008A"/>
<path d="M16.875 23.1068V30.6506C16.875 30.9735 17.0816 31.2601 17.3878 31.3622L17.5257 31.4081C17.8336 31.5107 18.1664 31.5107 18.4743 31.4081L18.6122 31.3622C18.9184 31.2601 19.125 30.9735 19.125 30.6506V23.1068C19.125 22.784 18.9184 22.4974 18.6122 22.3953L18.4743 22.3493C18.1664 22.2467 17.8336 22.2467 17.5257 22.3493L17.3878 22.3953C17.0816 22.4974 16.875 22.784 16.875 23.1068Z" fill="#56008A"/>
<path d="M22.875 24.6068V30.6506C22.875 30.9735 23.0816 31.2601 23.3878 31.3622L23.5257 31.4081C23.8336 31.5107 24.1664 31.5107 24.4743 31.4081L24.6122 31.3622C24.9184 31.2601 25.125 30.9735 25.125 30.6506V24.6068C25.125 24.284 24.9184 23.9974 24.6122 23.8953L24.4743 23.8493C24.1664 23.7467 23.8336 23.7467 23.5257 23.8493L23.3878 23.8953C23.0816 23.9974 22.875 24.284 22.875 24.6068Z" fill="#56008A"/>
<path d="M28.875 16.3568V30.6506C28.875 30.9735 29.0816 31.2601 29.3878 31.3622L29.5257 31.4081C29.8336 31.5107 30.1664 31.5107 30.4743 31.4081L30.6122 31.3622C30.9184 31.2601 31.125 30.9735 31.125 30.6506V16.3568C31.125 16.034 30.9184 15.7474 30.6122 15.6453L30.4743 15.5993C30.1664 15.4967 29.8336 15.4967 29.5257 15.5993L29.3878 15.6453C29.0816 15.7474 28.875 16.034 28.875 16.3568Z" fill="#56008A"/>
<path d="M4.875 25.3568V30.6506C4.875 30.9735 5.08157 31.2601 5.38783 31.3622L5.52566 31.4081C5.83356 31.5107 6.16644 31.5107 6.47434 31.4081L6.61217 31.3622C6.91843 31.2601 7.125 30.9735 7.125 30.6506V25.3568C7.125 25.034 6.91843 24.7474 6.61217 24.6453L6.47434 24.5993C6.16644 24.4967 5.83356 24.4967 5.52566 24.5993L5.38783 24.6453C5.08157 24.7474 4.875 25.034 4.875 25.3568Z" fill="#56008A"/>
</svg>
